<svg width="110" height="28" viewBox="0 0 110 28" fill="none" xmlns="http://www.w3.org/2000/svg">
<path fill-rule="evenodd" clip-rule="evenodd" d="M0 12.3998V1.89981C0 1.29981 0.5 0.799805 1 0.799805C1.5 0.799805 1.7 0.899805 2 1.0998L21.3 11.6998C21.7 11.8998 21.9 12.1998 21.9 12.4998C21.9 12.7998 21.7 13.0998 21.3 13.2998L2 23.7998C1.8 23.8998 1.5 24.0998 1 24.0998C0.5 24.0998 0 23.5998 0 22.9998V12.3998Z" fill="url(#paint0_linear_12_409)"/>
<path fill-rule="evenodd" clip-rule="evenodd" d="M12.5008 12.4998L0.800812 0.799805C0.900812 0.799805 0.900811 0.799805 1.00081 0.799805C1.50081 0.799805 1.70081 0.899805 2.00081 1.0998L16.2008 8.79981L12.5008 12.4998Z" fill="url(#paint1_linear_12_409)"/>
<path fill-rule="evenodd" clip-rule="evenodd" d="M16.1 15.9998L12.5 12.3998L16.2 8.7998L21.3 11.5998C21.7 11.7998 21.9 12.0998 21.9 12.3998C21.9 12.6998 21.7 12.9998 21.3 13.1998L16.1 15.9998Z" fill="url(#paint2_linear_12_409)"/>
<path fill-rule="evenodd" clip-rule="evenodd" d="M0.900391 23.9999L12.5004 12.3999L16.1004 15.9999L2.00039 23.7999C1.70039 23.8999 1.50039 23.9999 0.900391 23.9999C1.00039 23.9999 1.00039 23.9999 0.900391 23.9999Z" fill="url(#paint3_linear_12_409)"/>
<path fill-rule="evenodd" clip-rule="evenodd" d="M61.2996 26.6998C60.7996 26.2998 60.3996 25.5998 60.1996 25.1998L61.7996 24.4998C61.8996 24.6998 62.0996 24.9998 62.2996 25.2998C62.6996 25.6998 63.2996 26.0998 63.8996 26.0998C64.4996 26.0998 65.1996 25.7998 65.5996 25.2998C65.8996 24.7998 66.0996 24.2998 66.0996 23.5998V22.9998C64.8996 24.4998 62.3996 24.2998 60.9996 22.6998C59.4996 21.0998 59.4996 18.3998 60.9996 16.7998C62.4996 15.2998 64.6996 15.0998 65.9996 16.4998V15.7998H67.6996V23.3998C67.6996 25.2998 66.9996 26.3998 66.0996 27.0998C65.4996 27.5998 64.5996 27.7998 63.7996 27.7998C62.8996 27.5998 61.9996 27.2998 61.2996 26.6998ZM103.2 27.0998L104.9 23.0998L101.9 16.1998H103.6L105.7 21.0998L107.8 16.1998H109.5L104.9 27.0998H103.2ZM95.1 23.2998C94.6 22.7998 94.4 22.0998 94.4 21.3998C94.4 20.7998 94.6 20.1998 95 19.7998C95.7 19.0998 96.7 18.7998 97.8 18.7998C98.5 18.7998 99.1 18.8998 99.6 19.1998C99.6 17.9998 98.6 17.4998 97.8 17.4998C97.1 17.4998 96.4 17.8998 96.1 18.5998L94.6 17.9998C94.9 17.2998 95.7 15.9998 97.7 15.9998C98.7 15.9998 99.7 16.2998 100.3 16.9998C100.9 17.6998 101.1 18.4998 101.1 19.5998V23.7998H99.4V23.0998C99.2 23.3998 98.8 23.5998 98.5 23.7998C98.1 23.9998 97.6 24.0998 97.1 24.0998C96.5 23.9998 95.6 23.7998 95.1 23.2998ZM41.7996 19.6998C41.7996 17.6998 43.2996 15.4998 45.9996 15.4998C48.5996 15.4998 50.1996 17.6998 50.1996 19.6998C50.1996 21.6998 48.6996 23.8998 45.9996 23.8998C43.2996 23.8998 41.7996 21.6998 41.7996 19.6998ZM50.7996 19.6998C50.7996 17.6998 52.2996 15.4998 54.9996 15.4998C57.5996 15.4998 59.1996 17.6998 59.1996 19.6998C59.1996 21.6998 57.6996 23.8998 54.9996 23.8998C52.3996 23.8998 50.7996 21.6998 50.7996 19.6998ZM30.4996 21.8998C27.9996 19.3998 28.0996 15.2998 30.5996 12.6998C31.8996 11.3998 33.4996 10.7998 35.1996 10.7998C36.7996 10.7998 38.3996 11.3998 39.5996 12.5998L38.3996 13.8998C36.5996 12.0998 33.6996 12.1998 31.9996 13.9998C30.1996 15.8998 30.1996 18.7998 31.9996 20.6998C33.7996 22.5998 36.7996 22.6998 38.5996 20.7998C39.1996 20.1998 39.3996 19.3998 39.4996 18.5998H35.1996V16.7998H41.0996C41.1996 17.1998 41.1996 17.6998 41.1996 18.1998C41.1996 19.6998 40.5996 21.1998 39.5996 22.1998C38.4996 23.2998 36.8996 23.8998 35.2996 23.8998C33.5996 23.7998 31.7996 23.1998 30.4996 21.8998ZM72.7996 22.5998C71.2996 20.9998 71.2996 18.2998 72.7996 16.5998C74.2996 14.9998 76.7996 14.9998 78.1996 16.5998C78.6996 17.0998 78.9996 17.7998 79.2996 18.4998L73.7996 20.7998C74.0996 21.4998 74.7996 22.0998 75.7996 22.0998C76.6996 22.0998 77.2996 21.7998 77.8996 20.8998L79.3996 21.8998C79.1996 22.0998 78.9996 22.2998 78.8996 22.4998C77.1996 24.1998 74.2996 24.1998 72.7996 22.5998ZM83.2 23.7998V12.6998H86.8C88.9 12.6998 90.6 14.1998 90.6 15.9998C90.6 17.7998 89.1 19.2998 87.2 19.2998H85V23.7998H83.2ZM91.6 23.7998V12.6998H93.3V23.7998H91.6ZM68.9996 23.5998V11.1998H70.7996V23.5998H68.9996ZM99.5 20.4998C99.1 20.1998 98.5 20.0998 97.9 20.0998C96.7 20.0998 96 20.6998 96 21.3998C96 22.0998 96.7 22.4998 97.4 22.4998C98.4 22.4998 99.5 21.6998 99.5 20.4998ZM48.2996 19.6998C48.2996 18.4998 47.4996 17.1998 45.9996 17.1998C44.4996 17.1998 43.6996 18.4998 43.6996 19.6998C43.6996 20.8998 44.4996 22.1998 45.9996 22.1998C47.3996 22.1998 48.2996 20.8998 48.2996 19.6998ZM57.2996 19.6998C57.2996 18.4998 56.4996 17.1998 54.9996 17.1998C53.4996 17.1998 52.6996 18.4998 52.6996 19.6998C52.6996 20.8998 53.4996 22.1998 54.9996 22.1998C56.4996 22.1998 57.2996 20.8998 57.2996 19.6998ZM66.1996 20.3998C66.1996 20.2998 66.1996 20.1998 66.2996 20.0998C66.2996 19.9998 66.2996 19.7998 66.2996 19.6998C66.2996 19.5998 66.2996 19.3998 66.2996 19.2998V19.1998C66.2996 19.0998 66.1996 18.8998 66.1996 18.7998C65.8996 17.7998 64.9996 17.0998 64.0996 17.0998C62.8996 17.0998 61.8996 18.2998 61.8996 19.5998C61.8996 20.9998 62.8996 22.0998 64.1996 22.0998C64.9996 22.1998 65.7996 21.4998 66.1996 20.3998ZM73.4996 19.4998L77.1996 17.8998C76.7996 17.1998 76.1996 16.9998 75.6996 16.9998C74.1996 17.0998 73.2996 18.6998 73.4996 19.4998ZM88.8 16.0998C88.8 15.0998 88 14.3998 86.9 14.3998H84.9V17.8998H87C88 17.8998 88.8 17.0998 88.8 16.0998Z" fill="#582EFF"/>
<path d="M29.0996 2.9C29.0996 1.1 30.3996 0 31.9996 0C33.0996 0 33.7996 0.5 34.2996 1.2L33.4996 1.7C33.1996 1.2 32.6996 0.8 32.0996 0.8C30.9996 0.8 30.1996 1.6 30.1996 2.8C30.1996 4 30.9996 4.8 32.0996 4.8C32.6996 4.8 33.1996 4.5 33.3996 4.3V3.4H31.6996V2.6H34.3996V4.7C33.8996 5.3 33.0996 5.7 32.0996 5.7C30.3996 5.8 29.0996 4.6 29.0996 2.9Z" fill="#545659"/>
<path d="M35.5996 5.7V0H39.3996V0.9H36.4996V2.3H39.2996V3.2H36.4996V4.8H39.3996V5.7H35.5996Z" fill="#545659"/>
<path d="M42.2 5.7V0.9H40.5V0H44.9V0.9H43.2V5.6H42.2V5.7Z" fill="#545659"/>
<path d="M48.3008 5.7V0H49.3008V5.6H48.3008V5.7Z" fill="#545659"/>
<path d="M52.0008 5.7V0.9H50.3008V0H54.7008V0.9H53.0008V5.6H52.0008V5.7Z" fill="#545659"/>
<path d="M57.9004 2.9C57.9004 1.2 59.1004 0 60.8004 0C62.5004 0 63.7004 1.2 63.7004 2.9C63.7004 4.6 62.4004 5.8 60.7004 5.8C59.1004 5.8 57.9004 4.5 57.9004 2.9ZM62.6004 2.9C62.6004 1.7 61.9004 0.9 60.7004 0.9C59.6004 0.9 58.8004 1.8 58.8004 2.9C58.8004 4.1 59.5004 4.9 60.7004 4.9C61.9004 4.9 62.6004 4 62.6004 2.9Z" fill="#545659"/>
<path d="M68.7008 5.7L65.8008 1.7V5.7H64.8008V0H65.8008L68.7008 3.9V0H69.7008V5.6H68.7008V5.7Z" fill="#545659"/>
<defs>
<linearGradient id="paint0_linear_12_409" x1="6.4674" y1="-0.626595" x2="12.0656" y2="22.3643" gradientUnits="userSpaceOnUse">
<stop stop-color="#006884"/>
<stop offset="1" stop-color="#8AD1D0"/>
</linearGradient>
<linearGradient id="paint1_linear_12_409" x1="-0.358488" y1="2.6436" x2="14.8975" y2="10.8911" gradientUnits="userSpaceOnUse">
<stop stop-color="#24BBB6"/>
<stop offset="1" stop-color="#DBE692"/>
</linearGradient>
<linearGradient id="paint2_linear_12_409" x1="17.1944" y1="16.4199" x2="17.1944" y2="8.4715" gradientUnits="userSpaceOnUse">
<stop stop-color="#FCC072"/>
<stop offset="1" stop-color="#F58A5B"/>
</linearGradient>
<linearGradient id="paint3_linear_12_409" x1="2.59509" y1="26.0691" x2="14.6468" y2="13.8038" gradientUnits="userSpaceOnUse">
<stop stop-color="#712B8F"/>
<stop offset="1" stop-color="#EA1D27"/>
</linearGradient>
</defs>
</svg>
