<svg width="106" height="29" viewBox="0 0 106 29" fill="none" xmlns="http://www.w3.org/2000/svg">
<path d="M16.7559 13.1999C16.7559 10.0999 19.3559 8.59992 19.4559 8.49992C17.9559 6.39992 15.7559 6.09992 14.9559 5.99992C13.0559 5.79992 11.1559 7.09992 10.2559 7.09992C9.25589 7.09992 7.75589 5.99992 6.15589 5.99992C4.05589 5.99992 2.1559 7.19992 1.0559 9.09992C-1.1441 12.8999 0.455896 18.4999 2.5559 21.5999C3.6559 23.0999 4.8559 24.7999 6.45589 24.6999C8.05589 24.5999 8.6559 23.6999 10.5559 23.6999C12.4559 23.6999 12.9559 24.6999 14.6559 24.6999C16.3559 24.6999 17.4559 23.1999 18.4559 21.6999C19.6559 19.9999 20.1559 18.2999 20.1559 18.1999C20.0559 18.0999 16.7559 16.8999 16.7559 13.1999Z" fill="#582EFF"/>
<path d="M13.656 4C14.456 2.9 15.056 1.5 14.956 0C13.756 0.1 12.156 0.8 11.356 1.9C10.556 2.8 9.85601 4.3 10.056 5.7C11.356 5.8 12.756 5 13.656 4Z" fill="#582EFF"/>
<path d="M39.5562 24.5001H37.3562L36.1562 20.7001H31.9562L30.7562 24.5001H28.6562L32.7562 11.6001H35.3562L39.5562 24.5001ZM35.7562 19.1001L34.6562 15.7001C34.5562 15.4001 34.3562 14.5001 33.9562 13.3001C33.8562 13.8001 33.6562 14.7001 33.3562 15.7001L32.2562 19.1001H35.7562Z" fill="#582EFF"/>
<path d="M50.2559 19.8001C50.2559 21.4001 49.8559 22.6001 48.9559 23.6001C48.1559 24.4001 47.2559 24.8001 46.0559 24.8001C44.8559 24.8001 43.9559 24.4001 43.4559 23.5001V28.4001H41.3559V18.4001C41.3559 17.4001 41.3559 16.4001 41.2559 15.3001H43.0559L43.1559 16.8001C43.8559 15.7001 44.8559 15.1001 46.2559 15.1001C47.3559 15.1001 48.2559 15.5001 48.9559 16.4001C49.8559 17.2001 50.2559 18.3001 50.2559 19.8001ZM48.1559 19.8001C48.1559 18.9001 47.9559 18.1001 47.5559 17.6001C47.1559 17.0001 46.5559 16.7001 45.7559 16.7001C45.2559 16.7001 44.7559 16.9001 44.3559 17.2001C43.9559 17.5001 43.6559 18.0001 43.5559 18.5001C43.4559 18.8001 43.4559 19.0001 43.4559 19.1001V20.7001C43.4559 21.4001 43.6559 21.9001 44.0559 22.4001C44.4559 22.9001 45.0559 23.1001 45.6559 23.1001C46.4559 23.1001 47.0559 22.8001 47.4559 22.2001C47.8559 21.6001 48.1559 20.8001 48.1559 19.8001Z" fill="#582EFF"/>
<path d="M60.9551 19.8001C60.9551 21.4001 60.5551 22.6001 59.6551 23.6001C58.8551 24.4001 57.9551 24.8001 56.7551 24.8001C55.5551 24.8001 54.6551 24.4001 54.1551 23.5001V28.4001H52.0551V18.4001C52.0551 17.4001 52.0551 16.4001 51.9551 15.3001H53.7551L53.8551 16.8001C54.5551 15.7001 55.5551 15.1001 56.9551 15.1001C58.0551 15.1001 58.9551 15.5001 59.6551 16.4001C60.5551 17.2001 60.9551 18.3001 60.9551 19.8001ZM58.8551 19.8001C58.8551 18.9001 58.6551 18.1001 58.2551 17.6001C57.8551 17.0001 57.2551 16.7001 56.4551 16.7001C55.9551 16.7001 55.4551 16.9001 55.0551 17.2001C54.6551 17.5001 54.3551 18.0001 54.2551 18.5001C54.1551 18.8001 54.1551 19.0001 54.1551 19.1001V20.7001C54.1551 21.4001 54.3551 21.9001 54.7551 22.4001C55.1551 22.9001 55.7551 23.1001 56.3551 23.1001C57.1551 23.1001 57.7551 22.8001 58.1551 22.2001C58.5551 21.6001 58.8551 20.8001 58.8551 19.8001Z" fill="#582EFF"/>
<path d="M72.8551 20.9C72.8551 22 72.4551 22.9 71.7551 23.6C70.9551 24.4 69.7551 24.7 68.2551 24.7C66.8551 24.7 65.7551 24.4 64.9551 23.9L65.4551 22.2C66.3551 22.7 67.3551 23 68.4551 23C69.2551 23 69.8551 22.8 70.2551 22.5C70.6551 22.1 70.8551 21.7 70.8551 21.1C70.8551 20.6 70.6551 20.1 70.3551 19.8C69.9551 19.4 69.3551 19.1 68.5551 18.8C66.2551 18 65.1551 16.7 65.1551 15.1C65.1551 14 65.5551 13.2 66.3551 12.5C67.1551 11.8 68.1551 11.5 69.5551 11.5C70.7551 11.5 71.6551 11.7 72.4551 12.1L71.9551 13.8C71.2551 13.4 70.4551 13.2 69.4551 13.2C68.7551 13.2 68.1551 13.4 67.7551 13.7C67.4551 14 67.2551 14.4 67.2551 14.9C67.2551 15.4 67.4551 15.8 67.8551 16.2C68.1551 16.5 68.8551 16.8 69.7551 17.2C70.8551 17.6 71.6551 18.2 72.2551 18.8C72.6551 19.3 72.8551 20 72.8551 20.9Z" fill="#582EFF"/>
<path d="M79.7566 16.7999H77.4566V21.2999C77.4566 22.3999 77.8566 22.9999 78.6566 22.9999C79.0566 22.9999 79.3566 22.9999 79.5566 22.8999L79.6566 24.4999C79.2566 24.6999 78.7566 24.6999 78.0566 24.6999C77.2566 24.6999 76.5566 24.4999 76.1566 23.9999C75.6566 23.4999 75.4566 22.6999 75.4566 21.4999V16.7999H74.0566V15.1999H75.4566V13.4999L77.4566 12.8999V15.1999H79.7566V16.7999Z" fill="#582EFF"/>
<path d="M90.055 19.8C90.055 21.2 89.655 22.4 88.855 23.3C87.955 24.2 86.855 24.7 85.455 24.7C84.055 24.7 82.955 24.2 82.155 23.3C81.355 22.4 80.955 21.3 80.955 19.9C80.955 18.5 81.355 17.3 82.255 16.4C83.055 15.5 84.255 15 85.655 15C87.055 15 88.155 15.5 88.955 16.4C89.655 17.3 90.055 18.4 90.055 19.8ZM87.855 19.9C87.855 19 87.655 18.3 87.255 17.7C86.855 17 86.155 16.6 85.355 16.6C84.555 16.6 83.855 17 83.455 17.7C83.055 18.3 82.855 19.1 82.855 19.9C82.855 20.8 83.055 21.5 83.455 22.1C83.855 22.8 84.555 23.2 85.355 23.2C86.155 23.2 86.755 22.8 87.255 22.1C87.655 21.5 87.855 20.7 87.855 19.9Z" fill="#582EFF"/>
<path d="M96.756 16.9999C96.556 16.9999 96.356 16.8999 96.056 16.8999C95.356 16.8999 94.756 17.1999 94.356 17.6999C94.056 18.1999 93.856 18.7999 93.856 19.4999V24.3999H91.756V17.9999C91.756 16.8999 91.756 15.9999 91.656 15.0999H93.456L93.556 16.8999H93.656C93.856 16.2999 94.256 15.7999 94.656 15.3999C95.156 15.0999 95.656 14.8999 96.156 14.8999C96.356 14.8999 96.556 14.8999 96.656 14.8999V16.9999H96.756Z" fill="#582EFF"/>
<path d="M105.956 19.4C105.956 19.8 105.956 20.1 105.856 20.3H99.656C99.656 21.2 99.956 21.9 100.556 22.4C101.056 22.8 101.756 23.1 102.556 23.1C103.456 23.1 104.356 23 105.056 22.7L105.356 24.1C104.456 24.5 103.456 24.7 102.256 24.7C100.856 24.7 99.656 24.3 98.856 23.4C98.056 22.6 97.656 21.4 97.656 20C97.656 18.6 98.056 17.4 98.756 16.5C99.556 15.5 100.656 15 102.056 15C103.356 15 104.456 15.5 105.056 16.5C105.656 17.3 105.956 18.3 105.956 19.4ZM103.956 18.9C103.956 18.3 103.856 17.8 103.556 17.3C103.156 16.7 102.656 16.4 101.956 16.4C101.256 16.4 100.756 16.7 100.356 17.2C100.056 17.6 99.856 18.2 99.756 18.8H103.956V18.9Z" fill="#582EFF"/>
<path d="M35.0555 3.7001C35.0555 4.8001 34.7555 5.7001 34.0555 6.3001C33.4555 6.8001 32.5555 7.1001 31.3555 7.1001C30.7555 7.1001 30.2555 7.1001 29.8555 7.0001V0.700098C30.3555 0.600098 30.9555 0.600098 31.6555 0.600098C32.7555 0.600098 33.5555 0.800098 34.1555 1.3001C34.7555 1.9001 35.0555 2.7001 35.0555 3.7001ZM34.0555 3.7001C34.0555 3.0001 33.8555 2.4001 33.4555 2.0001C33.0555 1.6001 32.4555 1.4001 31.7555 1.4001C31.4555 1.4001 31.1555 1.4001 30.9555 1.5001V6.2001C31.0555 6.2001 31.3555 6.2001 31.6555 6.2001C32.4555 6.2001 33.0555 6.0001 33.4555 5.6001C33.7555 5.2001 34.0555 4.5001 34.0555 3.7001Z" fill="#545659"/>
<path d="M40.7559 4.6998C40.7559 5.3998 40.5559 5.9998 40.1559 6.3998C39.7559 6.8998 39.1559 7.0998 38.4559 7.0998C37.7559 7.0998 37.2559 6.8998 36.8559 6.3998C36.4559 5.9998 36.2559 5.3998 36.2559 4.6998C36.2559 3.9998 36.4559 3.3998 36.8559 2.9998C37.2559 2.4998 37.8559 2.2998 38.5559 2.2998C39.2559 2.2998 39.7559 2.4998 40.1559 2.9998C40.5559 3.3998 40.7559 3.9998 40.7559 4.6998ZM39.7559 4.6998C39.7559 4.2998 39.6559 3.8998 39.4559 3.5998C39.2559 3.1998 38.9559 3.0998 38.5559 3.0998C38.1559 3.0998 37.8559 3.2998 37.6559 3.5998C37.4559 3.8998 37.3559 4.2998 37.3559 4.6998C37.3559 5.0998 37.4559 5.49981 37.6559 5.79981C37.8559 6.19981 38.1559 6.29981 38.5559 6.29981C38.9559 6.29981 39.2559 6.09981 39.4559 5.69981C39.6559 5.49981 39.7559 5.0998 39.7559 4.6998Z" fill="#545659"/>
<path d="M48.3559 2.3999L46.9559 6.9999H46.0559L45.4559 4.9999C45.2559 4.4999 45.1559 3.9999 45.0559 3.4999C44.9559 3.9999 44.8559 4.4999 44.6559 4.9999L44.0559 6.9999H43.1559L41.7559 2.3999H42.7559L43.2559 4.5999C43.3559 5.0999 43.4559 5.5999 43.5559 6.0999C43.6559 5.6999 43.7559 5.1999 43.9559 4.5999L44.6559 2.3999H45.4559L46.0559 4.4999C46.2559 4.9999 46.3559 5.4999 46.4559 5.9999C46.5559 5.4999 46.6559 4.9999 46.7559 4.4999L47.3559 2.3999H48.3559Z" fill="#545659"/>
<path d="M53.6559 6.9998H52.6559V4.39981C52.6559 3.59981 52.3559 3.1998 51.7559 3.1998C51.4559 3.1998 51.2559 3.2998 51.0559 3.4998C50.8559 3.6998 50.7559 3.9998 50.7559 4.2998V6.9998H49.7559V3.6998C49.7559 3.2998 49.7559 2.89981 49.7559 2.39981H50.6559V3.0998C50.7559 2.8998 50.9559 2.6998 51.1559 2.4998C51.4559 2.3998 51.7559 2.2998 52.0559 2.2998C52.4559 2.2998 52.8559 2.3998 53.1559 2.6998C53.5559 2.9998 53.6559 3.4998 53.6559 4.1998V6.9998Z" fill="#545659"/>
<path d="M56.4551 6.9998H55.4551V0.299805H56.4551V6.9998Z" fill="#545659"/>
<path d="M62.4551 4.6998C62.4551 5.3998 62.2551 5.9998 61.8551 6.3998C61.4551 6.8998 60.8551 7.0998 60.1551 7.0998C59.4551 7.0998 58.9551 6.8998 58.5551 6.3998C58.1551 5.9998 57.9551 5.3998 57.9551 4.6998C57.9551 3.9998 58.1551 3.3998 58.5551 2.9998C58.9551 2.4998 59.5551 2.2998 60.2551 2.2998C60.9551 2.2998 61.4551 2.4998 61.8551 2.9998C62.2551 3.3998 62.4551 3.9998 62.4551 4.6998ZM61.3551 4.6998C61.3551 4.2998 61.2551 3.8998 61.0551 3.5998C60.8551 3.1998 60.5551 3.0998 60.1551 3.0998C59.7551 3.0998 59.4551 3.2998 59.2551 3.5998C59.0551 3.8998 58.9551 4.2998 58.9551 4.6998C58.9551 5.0998 59.0551 5.49981 59.2551 5.79981C59.4551 6.19981 59.7551 6.29981 60.1551 6.29981C60.5551 6.29981 60.8551 6.09981 61.0551 5.69981C61.2551 5.49981 61.3551 5.0998 61.3551 4.6998Z" fill="#545659"/>
<path d="M67.3562 6.9998H66.4562L66.3562 6.4998C66.0562 6.8998 65.5563 7.0998 65.0563 7.0998C64.6563 7.0998 64.2563 6.99981 64.0563 6.69981C63.8563 6.39981 63.6562 6.09981 63.6562 5.79981C63.6562 5.19981 63.8562 4.7998 64.3562 4.4998C64.8562 4.1998 65.4562 4.0998 66.3562 4.0998V3.9998C66.3562 3.3998 66.0562 3.0998 65.4562 3.0998C64.9562 3.0998 64.6562 3.19981 64.2562 3.39981L64.0563 2.6998C64.4563 2.3998 64.9562 2.2998 65.6562 2.2998C66.8563 2.2998 67.4562 2.8998 67.4562 4.1998V5.8998C67.2562 6.3998 67.3562 6.6998 67.3562 6.9998ZM66.2562 5.3998V4.6998C65.1562 4.6998 64.5563 4.9998 64.5563 5.5998C64.5563 5.7998 64.6562 5.9998 64.7562 6.0998C64.8562 6.1998 65.0562 6.29981 65.2562 6.29981C65.4562 6.29981 65.6562 6.1998 65.8562 6.0998C66.0562 5.9998 66.1562 5.7998 66.2562 5.5998C66.2562 5.5998 66.2562 5.4998 66.2562 5.3998Z" fill="#545659"/>
<path d="M73.1555 6.9998H72.2555V6.29981C71.9555 6.89981 71.4555 7.0998 70.7555 7.0998C70.1555 7.0998 69.7555 6.8998 69.3555 6.4998C68.9555 6.0998 68.8555 5.4998 68.8555 4.7998C68.8555 4.0998 69.0555 3.4998 69.4555 2.9998C69.7555 2.4998 70.2555 2.2998 70.7555 2.2998C71.3555 2.2998 71.7555 2.4998 72.0555 2.89981V0.299805H73.0555V5.69981C73.0555 6.19981 73.1555 6.5998 73.1555 6.9998ZM72.0555 5.0998V4.2998C72.0555 4.1998 72.0555 4.0998 72.0555 3.9998C71.9555 3.7998 71.8555 3.59981 71.6555 3.39981C71.4555 3.19981 71.2555 3.1998 70.9555 3.1998C70.5555 3.1998 70.2555 3.3998 70.0555 3.6998C69.8555 3.9998 69.7555 4.39981 69.7555 4.89981C69.7555 5.39981 69.8555 5.6998 70.0555 5.9998C70.2555 6.2998 70.5555 6.4998 70.9555 6.4998C71.2555 6.4998 71.5555 6.39981 71.7555 6.0998C71.9555 5.6998 72.0555 5.39981 72.0555 5.0998Z" fill="#545659"/>
<path d="M81.855 4.6998C81.855 5.3998 81.655 5.9998 81.255 6.3998C80.855 6.8998 80.255 7.0998 79.5555 7.0998C78.8555 7.0998 78.3555 6.8998 77.9555 6.3998C77.5555 5.9998 77.3555 5.3998 77.3555 4.6998C77.3555 3.9998 77.5555 3.3998 77.9555 2.9998C78.3555 2.4998 78.9555 2.2998 79.6555 2.2998C80.355 2.2998 80.855 2.4998 81.255 2.9998C81.655 3.3998 81.855 3.9998 81.855 4.6998ZM80.755 4.6998C80.755 4.2998 80.655 3.8998 80.455 3.5998C80.255 3.1998 79.9555 3.0998 79.5555 3.0998C79.1555 3.0998 78.8555 3.2998 78.6555 3.5998C78.4555 3.8998 78.3555 4.2998 78.3555 4.6998C78.3555 5.0998 78.4555 5.49981 78.6555 5.79981C78.8555 6.19981 79.1555 6.29981 79.5555 6.29981C79.9555 6.29981 80.255 6.09981 80.455 5.69981C80.655 5.49981 80.755 5.0998 80.755 4.6998Z" fill="#545659"/>
<path d="M87.255 6.99971H86.255V4.39971C86.255 3.59971 85.955 3.19971 85.355 3.19971C85.055 3.19971 84.855 3.29971 84.655 3.49971C84.455 3.69971 84.355 3.99971 84.355 4.29971V6.99971H83.355V3.69971C83.355 3.29971 83.355 2.89971 83.355 2.39971H84.255V3.09971C84.355 2.89971 84.555 2.69971 84.755 2.49971C85.055 2.29971 85.355 2.19971 85.655 2.19971C86.055 2.19971 86.455 2.29971 86.755 2.59971C87.155 2.89971 87.255 3.39971 87.255 4.09971V6.99971Z" fill="#545659"/>
<path d="M94.155 3.1998H93.055V5.3998C93.055 5.9998 93.255 6.19981 93.655 6.19981C93.855 6.19981 93.955 6.19981 94.155 6.19981V6.9998C93.955 7.0998 93.655 7.0998 93.355 7.0998C92.955 7.0998 92.655 6.99981 92.455 6.69981C92.255 6.49981 92.155 5.9998 92.155 5.4998V3.1998H91.455V2.39981H92.155V1.5998L93.155 1.2998V2.39981H94.255V3.1998H94.155Z" fill="#545659"/>
<path d="M99.556 6.9998H98.556V4.39981C98.556 3.59981 98.256 3.1998 97.656 3.1998C97.156 3.1998 96.856 3.39981 96.656 3.89981C96.656 3.9998 96.656 4.0998 96.656 4.2998V6.9998H95.656V0.299805H96.656V3.0998C96.956 2.5998 97.456 2.2998 98.056 2.2998C98.456 2.2998 98.856 2.3998 99.056 2.6998C99.356 2.9998 99.556 3.5998 99.556 4.1998V6.9998Z" fill="#545659"/>
<path d="M105.057 4.4999C105.057 4.6999 105.057 4.7999 105.057 4.9999H102.057C102.057 5.4999 102.257 5.7999 102.457 5.9999C102.757 6.1999 103.057 6.2999 103.457 6.2999C103.957 6.2999 104.357 6.1999 104.657 6.0999L104.857 6.7999C104.457 6.9999 103.957 7.0999 103.357 7.0999C102.657 7.0999 102.057 6.8999 101.657 6.4999C101.257 6.0999 101.057 5.4999 101.057 4.7999C101.057 4.0999 101.257 3.4999 101.657 3.0999C102.057 2.5999 102.557 2.3999 103.257 2.3999C103.957 2.3999 104.457 2.5999 104.757 3.0999C104.957 3.3999 105.057 3.8999 105.057 4.4999ZM104.057 4.1999C104.057 3.8999 103.957 3.5999 103.857 3.3999C103.657 3.0999 103.457 2.9999 103.057 2.9999C102.757 2.9999 102.457 3.0999 102.257 3.3999C102.057 3.5999 101.957 3.8999 101.957 4.1999H104.057Z" fill="#545659"/>
</svg>
